# xmcd
#
# Track frame offsets:
#	150
#	12789
#	29258
#	42167
#	61920
#	75899
#	88048
#	104182
#	119604
#	134147
#	145202
#	161468
#
# Disc length: 2366 seconds
# Revision: 4
# Processed by: cddbd v1.5.2PL0 Copyright (c) Steve Scherf et al.
# Submitted via: dBpowerAMP V12.0
#
DISCID=9e093c0c
DTITLE=James Hunter Six - Minute By Minute
DYEAR=2013
DGENRE=Blues
TTITLE0=Chicken Switch
TTITLE1=Minute By Minute
TTITLE2=Drop On Me
TTITLE3=Heartbreak
TTITLE4=One Way Love
TTITLE5=Gold Mine
TTITLE6=Let The Monkey Ride
TTITLE7=The Gypsy
TTITLE8=So They Say
TTITLE9=Nothin' I Wouldn't Do
TTITLE10=Look Out
TTITLE11=If I Only Knew
EXTD=
EXTT0=
EXTT1=
EXTT2=
EXTT3=
EXTT4=
EXTT5=
EXTT6=
EXTT7=
EXTT8=
EXTT9=
EXTT10=
EXTT11=
PLAYORDER=
